PathFileType	4	(X/Y/Z)	Kaydara	
DataRate	CameraRate	NumFrames	NumMarkers	Units	OrigDataRate	OrigDataStartFrame	OrigNumFrames	
120.00	120.00	4	72	mm	120.00	135	268	
Frame#	Time	Hips			RightUpLeg			RightLeg			RightFoot			RightFoot_End			LeftUpLeg			LeftLeg			LeftFoot			LeftFoot_End			Spine			Spine1			Spine2			Spine3			Neck			Head			Head_End			RightShoulder			RightArm			RightForeArm			RightHand			RightHandThumb1			RightHandThumb2			RightHandThumb3			RightHandThumb3_End			RightInHandIndex			RightHandIndex1			RightHandIndex2			RightHandIndex3			RightHandIndex3_End			RightInHandMiddle			RightHandMiddle1			RightHandMiddle2			RightHandMiddle3			RightHandMiddle3_End			RightInHandRing			RightHandRing1			RightHandRing2			RightHandRing3			RightHandRing3_End			RightInHandPinky			RightHandPinky1			RightHandPinky2			RightHandPinky3			RightHandPinky3_End			LeftShoulder			LeftArm			LeftForeArm			LeftHand			LeftHandThumb1			LeftHandThumb2			LeftHandThumb3			LeftHandThumb3_End			LeftInHandIndex			LeftHandIndex1			LeftHandIndex2			LeftHandIndex3			LeftHandIndex3_End			LeftInHandMiddle			LeftHandMiddle1			LeftHandMiddle2			LeftHandMiddle3			LeftHandMiddle3_End			LeftInHandRing			LeftHandRing1			LeftHandRing2			LeftHandRing3			LeftHandRing3_End			LeftInHandPinky			LeftHandPinky1			LeftHandPinky2			LeftHandPinky3			LeftHandPinky3_End			
		X1	Y1	Z1	X2	Y2	Z2	X3	Y3	Z3	X4	Y4	Z4	X5	Y5	Z5	X6	Y6	Z6	X7	Y7	Z7	X8	Y8	Z8	X9	Y9	Z9	X10	Y10	Z10	X11	Y11	Z11	X12	Y12	Z12	X13	Y13	Z13	X14	Y14	Z14	X15	Y15	Z15	X16	Y16	Z16	X17	Y17	Z17	X18	Y18	Z18	X19	Y19	Z19	X20	Y20	Z20	X21	Y21	Z21	X22	Y22	Z22	X23	Y23	Z23	X24	Y24	Z24	X25	Y25	Z25	X26	Y26	Z26	X27	Y27	Z27	X28	Y28	Z28	X29	Y29	Z29	X30	Y30	Z30	X31	Y31	Z31	X32	Y32	Z32	X33	Y33	Z33	X34	Y34	Z34	X35	Y35	Z35	X36	Y36	Z36	X37	Y37	Z37	X38	Y38	Z38	X39	Y39	Z39	X40	Y40	Z40	X41	Y41	Z41	X42	Y42	Z42	X43	Y43	Z43	X44	Y44	Z44	X45	Y45	Z45	X46	Y46	Z46	X47	Y47	Z47	X48	Y48	Z48	X49	Y49	Z49	X50	Y50	Z50	X51	Y51	Z51	X52	Y52	Z52	X53	Y53	Z53	X54	Y54	Z54	X55	Y55	Z55	X56	Y56	Z56	X57	Y57	Z57	X58	Y58	Z58	X59	Y59	Z59	X60	Y60	Z60	X61	Y61	Z61	X62	Y62	Z62	X63	Y63	Z63	X64	Y64	Z64	X65	Y65	Z65	X66	Y66	Z66	X67	Y67	Z67	X68	Y68	Z68	X69	Y69	Z69	X70	Y70	Z70	X71	Y71	Z71	X72	Y72	Z72	

135	1.117	4446.805	859.65103	-201.189	4507.86093634865	848.9418596713227	-233.76924579380344	4400.991085573457	451.2884446657548	-272.86709375012333	4465.947492298352	62.29283647244452	-369.92057510224924	4420.8062406875415	-27.926842695305584	-225.2606020125537	4393.817748108898	842.1105976149241	-154.84856553026395	4267.910405939841	451.1103993631507	-77.45044319905212	4202.883776991435	73.41348755010924	85.83442532416129	4253.8096091655325	22.97092493963901	260.20094982234605	4407.783592516165	983.6962504664397	-259.3921295826167	4358.905985692285	1054.3526246522904	-303.4544468113915	4302.237714210887	1123.1674615856634	-349.31072127819436	4240.225628390695	1181.5025255463036	-393.40044902533265	4173.149456033843	1243.8932609063706	-436.7903607531937	4130.071280441049	1316.9839641394349	-396.56554041787126	4106.516694533933	1405.5953584890472	-268.02680291047574	4208.208400629269	1228.5860839897819	-436.7912566604551	4264.496914296876	1234.1372594131344	-489.1226564538531	4358.0364441059	1058.646975819447	-479.5483500580129	4441.447555006393	1032.7995608307665	-567.9014475108276	4450.606567235541	1054.3674386621344	-573.3275846563886	4452.290523930685	1066.4286039312642	-588.8597612649108	4454.147072721609	1071.8004063788198	-599.904249589179	4456.279807771378	1073.6886167371124	-609.3065030850012	4455.0775476432045	1045.774305454372	-573.7873038426837	4473.336907799569	1053.1562040269491	-587.3312456001552	4479.744498279332	1056.7914997693404	-601.3235617275191	4478.296584975001	1060.1206662760706	-611.2928630371737	4473.434417057565	1063.5973633241695	-620.4012979395272	4456.002546669207	1037.2114262787366	-574.1527691490653	4474.314306541306	1039.7802697271616	-587.5594973210525	4481.361221959556	1042.5914263701336	-602.8378944033758	4479.640721071042	1046.053374253122	-614.8702917881311	4474.333437731839	1049.5879131780932	-624.8389017561976	4456.262174453618	1030.9703006703692	-574.0231598810053	4473.109385754002	1027.8457601520672	-585.8023219887345	4479.278018018853	1029.1107455815556	-599.1085859757875	4477.632527287874	1031.820646316284	-610.7092396266843	4472.649005644609	1034.845734396398	-620.0796211560165	4455.464714318221	1023.5874168884412	-573.8137454697588	4470.672957011235	1016.1621584386866	-584.3512321519418	4475.579935318305	1015.3396681492945	-594.9390425612673	4474.363919716147	1016.4284156124218	-603.3680262716146	4469.940244488922	1018.5971731581052	-611.6499079950994	4182.145338448434	1220.2321933177388	-406.67564054210345	4144.914358872569	1169.5477705810522	-356.45423141722665	4231.5180105937125	1066.410232419322	-477.97975715248685	4367.657600935108	1043.4368880708685	-455.5623516996766	4369.289834697557	1065.539121884016	-461.66679164866196	4380.311842889782	1069.9268105868398	-479.7539054015662	4387.737080008227	1070.3641862823051	-493.9527314240482	4393.712897625779	1068.488999515319	-507.16096029761843	4367.518936936475	1059.4607726663314	-467.4319560053896	4370.807719247761	1068.6974740475903	-493.8614423844653	4378.559332875432	1068.2914717705212	-515.1439604401012	4386.32597645033	1065.7039812710052	-526.6051402034243	4394.742582224614	1061.9872350974417	-534.8975336975009	4366.982843275172	1051.69335221737	-471.00921583771674	4369.899092143733	1056.5031067620876	-498.7218566925739	4378.283066962639	1054.996687907196	-522.3352095439549	4387.617454266319	1051.3646786673455	-536.3497918366795	4396.809352924494	1047.0498067211777	-545.5141243537505	4366.463714616021	1046.0240813557934	-472.84849925332907	4368.461449231981	1045.5715599645857	-499.24137582940295	4375.688751658199	1043.163486207842	-520.1778479556766	4384.649925718194	1039.0785772151646	-533.8845411316424	4393.272448893235	1034.7459249304065	-542.5906539564379	4366.214834408762	1038.7960507567768	-474.3098957922405	4367.705342681254	1034.1095089644296	-499.38109466718066	4373.359282099449	1030.4743521962407	-516.5850721661161	4379.831061990635	1026.6691339893705	-526.7950619855449	4387.432076947363	1022.3559299484978	-534.629426387552
136	1.125	4446.805	859.65103	-201.189	4507.497387022394	848.781137369392	-233.8803635333059	4400.9698446115335	451.05927384924	-272.57549337663505	4466.537588947639	62.55987775753513	-370.2719516956149	4421.712094141994	-27.764106856126975	-225.77234222892994	4394.168501488897	842.2639422236155	-154.7427553977242	4268.231360227333	451.3539286824014	-76.99323346014874	4202.983351994984	73.5302996705721	85.89801641037344	4254.106725192816	22.983191752913662	260.1552171338588	4407.861450560161	983.7384827823016	-259.3617313149629	4359.044563879432	1054.472596239268	-303.3680744153156	4302.456683664349	1123.3988251056348	-349.16075809231205	4240.522986310107	1181.8621002405491	-393.1855646506919	4173.525563221643	1244.373997176218	-436.5094423426962	4130.328424593532	1317.4085214550214	-396.3810079585513	4106.698328823379	1406.0219101328557	-267.89493344116573	4208.4703292923505	1228.9571255206347	-436.5124220394698	4264.495763428686	1234.2756302661267	-488.7236823405272	4357.771128772332	1059.0865682148362	-478.809517040715	4440.746777082608	1033.431833350666	-567.6593761336222	4450.233607528105	1055.060343559272	-573.1402052769711	4452.099239177196	1067.13011689253	-588.8277384290355	4454.034456636118	1072.4959297685996	-599.9846903530763	4456.191841069207	1074.3688954083684	-609.4843563397689	4454.566924180579	1046.4319512440147	-573.6124768266413	4472.92302750963	1053.7989257721385	-587.3087589235396	4479.377727270745	1057.4124231318779	-601.4486739913025	4477.979476713698	1060.7326922388913	-611.5172616454001	4473.172157673387	1064.2051651065476	-620.7129504921883	4455.3574527975115	1037.8364557327845	-573.9862396749245	4473.690844543512	1040.3731035279159	-587.5460328021115	4480.771083634006	1043.1562031049252	-602.9861422063818	4479.101822115692	1046.6053685775596	-615.1386380363906	4473.850335235328	1050.1342892542452	-625.2028716365973	4455.519520160854	1031.5727017735392	-573.8582415449397	4472.301170983847	1028.3997651581558	-585.7749133458104	4478.480333693703	1029.6359831735551	-599.2225565789397	4476.874434768073	1032.3312626506124	-610.9392824654457	4471.938716516971	1035.3499832874404	-620.3996829217324	4454.607510222732	1024.1638975839214	-573.6491377148027	4469.684735433017	1016.6783819063832	-584.3117670314052	4474.571547550226	1015.8263362120664	-595.012862068359	4473.370576472604	1016.9012656961627	-603.5265453937812	4468.981285319462	1019.0625681668379	-611.8881893380594	4182.5907306959225	1220.7395045463638	-406.44782158026055	4145.57465583103	1170.330923764406	-356.314197277806	4231.579701698841	1067.171227888639	-477.3095774045213	4366.790003075695	1044.110357108686	-455.02331998920613	4368.418315361708	1066.3228615906326	-461.3582801729174	4379.535421904764	1070.7349435349165	-479.4357087347597	4387.027560851336	1071.1751256954396	-493.5914264318668	4393.059729291039	1069.2901483918406	-506.73261069901304	4366.6394981059075	1060.2095226298525	-467.0300177501904	4369.955915277714	1069.4838840694827	-493.4658226794485	4377.78006822397	1069.0735086939574	-514.6684757791702	4385.618376290216	1066.47514213371	-526.0628824955418	4394.112218939868	1062.7438917249465	-534.2884593729907	4366.106812427337	1052.4007707953222	-470.5041505191226	4369.051844231395	1057.2249091114845	-498.1671973945275	4377.515400163561	1055.7081051174582	-521.6796685571808	4386.936453821316	1052.0602800018669	-535.607101800646	4396.21296292118	1047.7282282791011	-544.6951206016979	4365.588855803971	1046.7015626214366	-472.2710330007422	4367.611846911486	1046.236604941497	-498.5584250849929	4374.908909318687	1043.8137159258258	-519.3930032970434	4383.953890211891	1039.71049087059	-533.0082170434498	4392.656068940896	1035.3602343225011	-541.6390616371565	4365.344710599291	1039.4361629431944	-473.64392248770406	4366.859529780904	1034.7159439531474	-498.56588720712386	4372.569842945357	1031.0599846038358	-515.6669392590247	4379.102999828702	1027.2370830387697	-525.7998851149176	4386.774718947184	1022.9057959077354	-533.5616354862169
137	1.133	4446.805	859.65103	-201.189	4507.130004915013	848.613138253975	-233.99681849960533	4400.940153217956	450.8222454048019	-272.2691874645582	4467.143850206788	62.82474872342295	-370.6230363834562	4422.644608134449	-27.60208291178365	-226.274839730357	4394.521836688982	842.4234290719982	-154.63332268497763	4268.625368949932	451.58061478497376	-76.532487728273	4203.155660253933	73.6413345169993	85.97503485623469	4254.4502211474555	23.006591670942854	260.1319485724747	4407.944997781893	983.7861233077122	-259.32351223125914	4359.192336335301	1054.6016151414283	-303.27210045347624	4302.68842602734	1123.6430817733437	-349.0001396355348	4240.836188663241	1182.2380677454378	-392.96018259029347	4173.920194165319	1244.874291332286	-436.21829853703264	4130.611343172463	1317.8506076288988	-396.18215641727795	4106.914060447963	1406.4629428689536	-267.744598080176	4208.749348319522	1229.341917264151	-436.22558226938605	4264.507748079809	1234.4039498534648	-488.327974132892	4357.471718707068	1059.4917639310477	-478.05608877677963	4439.981034655195	1033.991081223698	-567.3889968345802	4449.79098438058	1055.6691199289735	-572.9342929902525	4451.830886610146	1067.7404104514205	-588.7808641328421	4453.839561615692	1073.0959790452127	-600.0515324378115	4456.017204123747	1074.9507375792207	-609.6485337211427	4453.986181389507	1047.0065302849405	-573.415645913276	4472.430202378293	1054.3473658348742	-587.2676006171345	4478.924951998141	1057.9332304332968	-601.5556585681668	4477.572201100596	1061.24236986004	-611.7237057849163	4472.81643754738	1064.7097120096776	-621.0066807086074	4454.642354211152	1038.3807610641386	-573.793940163673	4472.988831670672	1040.8755409830633	-587.5080117626036	4480.09473380391	1043.6245650199558	-603.1099170475687	4478.471709331464	1047.058421892774	-615.3824753623683	4473.272425379143	1050.5808132855896	-625.5422487833266	4454.707174419661	1032.0963022218302	-573.6648173226904	4471.415898816438	1028.867918918851	-585.7177410139877	4477.598971724336	1030.070494653624	-599.3063129330923	4476.027869807307	1032.7489133805414	-611.1387988646622	4471.136590140065	1035.760503530902	-620.6890075768466	4453.681174576959	1024.6642594836428	-573.4526948494678	4468.620992904434	1017.1136097285995	-584.2372955031168	4473.482458366379	1016.2287149113348	-595.0505033330609	4472.293092828513	1017.2884878174716	-603.6482660858364	4467.935238863619	1019.4418291304996	-612.0892601028936	4183.054878764925	1221.270307810441	-406.2076454567453	4146.253436655981	1171.1543536583226	-356.1407868300109	4231.639553116202	1067.9241533213244	-476.5889922213109	4365.915121586835	1044.716616100552	-454.4495210269031	4367.5262635571435	1067.0291670234299	-461.0151022378923	4378.732356612762	1071.4607219688116	-479.084648604707	4386.288582477384	1071.9005013382482	-493.1982222487475	4392.375988165347	1070.0032434684092	-506.2729166189798	4365.743022018744	1060.8800251260434	-466.5921003204843	4369.07948855885	1070.1788098318748	-493.03249227435816	4376.973338161591	1069.7583358981524	-514.1555567744723	4384.882294711693	1067.1482978243969	-525.4845471013049	4393.453040390774	1063.4037490154876	-533.6452296102741	4365.218044386676	1053.0311584955257	-469.9624442811271	4368.186785742308	1057.8574267280856	-497.5738499270681	4376.72741564864	1056.3241978368535	-520.985661112141	4386.234195587162	1052.6596969015081	-534.8275437972516	4395.595088555345	1048.3118333019822	-543.8413334576123	4364.704474579195	1047.3031735793772	-471.65648524779687	4366.750916763812	1046.8156982520466	-497.8361248529193	4374.116170383133	1044.372961927908	-518.5689242680905	4383.244378569116	1040.2507143331093	-532.0941589409647	4392.0261548784165	1035.8841980539391	-540.6516755778738	4364.469121760153	1040.0024145212342	-472.9405460507624	4366.009038417868	1035.2403835848456	-497.7109398715117	4371.775438653008	1031.5599983751877	-514.70904648663	4378.370018893474	1027.7190949455614	-524.7659886690913	4386.112660736781	1023.3710288320503	-532.4568126935812
138	1.142	4446.805	859.65103	-201.189	4506.758015002395	848.4389182110725	-234.1194885691609	4400.909653850458	450.57553713475664	-271.9498564256772	4467.77973957128	63.086720434504485	-370.98243409806526	4423.619873990381	-27.44133315794739	-226.77584824374648	4394.878936881261	842.5882346963707	-154.51914411674446	4269.092445924098	451.78944796352414	-76.06885684075804	4203.403534741694	73.74539236986348	86.06539098556438	4254.849063342358	23.035856222891223	260.1289149362893	4408.03249779668	983.8380917819956	-259.2784898066093	4359.347886391552	1054.7381745445234	-303.16855558785653	4302.932074586526	1123.8983823518874	-348.8320131301756	4241.165381456362	1182.6286629513324	-392.72864682106774	4174.334536632581	1245.3925416536501	-435.9225278990918	4130.9226606797665	1318.3100574954399	-395.9755019514809	4107.169595808623	1406.9201010060203	-267.5826897205081	4209.046437070784	1229.7380231541913	-435.93634473021825	4264.5335501678	1234.5184816915996	-487.9391570425224	4357.13594406242	1059.8572505383877	-477.28486412114967	4439.1476833610295	1034.4693324368561	-567.0760043663572	4449.273166613179	1056.1847394892357	-572.6960619626752	4451.478413119687	1068.2497217487403	-588.7045767405673	4453.554567975665	1073.5904437823513	-600.0894231045908	4455.747689013442	1075.4238832989365	-609.7828082368277	4453.330486905303	1047.4895116947703	-573.1822256871695	4471.851722201402	1054.7927185411215	-587.1916006771423	4478.378622054996	1058.344889482346	-601.6269641807786	4477.066848310094	1061.6403946288315	-611.8939597881646	4472.359159349055	1065.101385343346	-621.263804137506	4453.853303684057	1038.836265131784	-573.5606447315673	4472.202967644064	1041.2794823678023	-587.4283163508763	4479.326078847247	1043.988226070325	-603.1905140742136	4477.743914675803	1047.4039486504726	-615.5822350091508	4472.593063743799	1050.918570177505	-625.8369548400267	4453.821860085381	1032.5333538197933	-573.427250096212	4470.449651753124	1029.2427426760923	-585.6131179765365	4476.629451418545	1030.406700871289	-599.3407062367705	4475.088058782914	1033.0657635521027	-611.2877650624583	4470.237719328682	1036.0691658558067	-620.9270724113998	4452.683281955166	1025.0811306803112	-573.2083448564447	4467.479230591359	1017.4609536517594	-584.1095996590977	4472.309921008666	1016.5399313445342	-595.0324644008498	4471.128606581155	1017.5830687191456	-603.7129932295614	4466.799181146236	1019.7277086864966	-612.2324516021054	4183.538541887055	1221.8238142085847	-405.9599349698897	4146.950785525734	1172.019968824068	-355.93668214618185	4231.69507711784	1068.6630398442296	-475.8183059858673	4365.036270841407	1045.2327661251913	-453.8415687588947	4366.61548332267	1067.6344245060466	-460.63615412734043	4377.904118272707	1072.0807227846637	-478.69861104750805	4385.5217116203985	1072.5170222678448	-492.7705526870631	4391.663600450058	1070.6051033553397	-505.7791497010235	4364.83231631709	1061.4484923359814	-466.117829332805	4368.181819198822	1070.757562050352	-492.5605573722415	4376.143085651811	1070.321203686166	-513.6040211836439	4384.121803898687	1067.6990427428852	-524.8686481697848	4392.769076830043	1063.9429436215516	-532.9660233929502	4364.320224668722	1053.560783912635	-469.3844276331892	4367.3086353029485	1058.3760794460968	-496.9420194025682	4375.924560447081	1056.8203309404123	-520.2531723378981	4385.516337164373	1053.1387147430503	-534.0107821174961	4394.961368224431	1048.7770030657164	-542.9520826742424	4363.814862534198	1047.8052398685422	-471.00569851611345	4365.884404264573	1047.284436798423	-497.075652143634	4373.31703025465	1044.8167859882574	-517.7066931831838	4382.528150476416	1040.6752217207236	-531.1431913018645	4391.3894772246595	1036.2943537918609	-539.6290206778276	4363.593037002575	1040.471269591421	-472.20120795567715	4365.160590936097	1035.6586888518889	-496.8183726257237	4370.983565244276	1031.9502495246495	-513.7135880302726	4377.639891720661	1028.0913376011786	-523.6954512697798	4385.4537327300895	1023.7283022575594	-531.3168129779631
